<mxfile host="app.diagrams.net" agent="Mozilla/5.0 (Windows NT 10.0; Win64; x64; rv:136.0) Gecko/20100101 Firefox/136.0" version="27.1.5">
  <diagram name="Page-1" id="g6TqFf-J95rABQfKAAWV">
    <mxGraphModel dx="815" dy="450" grid="1" gridSize="10" guides="1" tooltips="1" connect="1" arrows="1" fold="1" page="1" pageScale="1" pageWidth="850" pageHeight="1100" math="0" shadow="0">
      <root>
        <mxCell id="0" />
        <mxCell id="1" parent="0" />
        <mxCell id="FYnC16tskqoebnY5So_8-1" value="Våkner opp.&lt;br&gt;&lt;span style=&quot;color: rgb(255, 0, 0);&quot;&gt;Quest: Gå til kantinen for å få mat&lt;/span&gt;" style="rounded=0;whiteSpace=wrap;html=1;" parent="1" vertex="1">
          <mxGeometry x="40" y="80" width="120" height="60" as="geometry" />
        </mxCell>
        <mxCell id="FYnC16tskqoebnY5So_8-2" value="" style="endArrow=classic;html=1;rounded=0;exitX=1;exitY=0.5;exitDx=0;exitDy=0;entryX=0;entryY=0.5;entryDx=0;entryDy=0;" parent="1" source="FYnC16tskqoebnY5So_8-1" target="FYnC16tskqoebnY5So_8-5" edge="1">
          <mxGeometry width="50" height="50" relative="1" as="geometry">
            <mxPoint x="390" y="210" as="sourcePoint" />
            <mxPoint x="200" y="80" as="targetPoint" />
          </mxGeometry>
        </mxCell>
        <mxCell id="FYnC16tskqoebnY5So_8-3" value="Kantine" style="rounded=0;whiteSpace=wrap;html=1;" parent="1" vertex="1">
          <mxGeometry x="270" y="20" width="120" height="20" as="geometry" />
        </mxCell>
        <mxCell id="FYnC16tskqoebnY5So_8-4" value="Hjemme" style="rounded=0;whiteSpace=wrap;html=1;" parent="1" vertex="1">
          <mxGeometry x="40" y="40" width="120" height="20" as="geometry" />
        </mxCell>
        <mxCell id="FYnC16tskqoebnY5So_8-5" value="God morgen, tidlig oppe ser jeg! Du har dessverre stått litt for tidlig opp, så maten er ikke helt klar enda. Kunne du hjulpet litt med suppen? Kjøttet er på lageret - du kan velge hvilket du vil. Krydder vokser i den lille hagen bak kantinen, du vet hvor :) " style="rounded=0;whiteSpace=wrap;html=1;" parent="1" vertex="1">
          <mxGeometry x="200" y="60" width="260" height="100" as="geometry" />
        </mxCell>
        <mxCell id="FYnC16tskqoebnY5So_8-6" style="edgeStyle=orthogonalEdgeStyle;rounded=0;orthogonalLoop=1;jettySize=auto;html=1;exitX=0.5;exitY=1;exitDx=0;exitDy=0;" parent="1" source="FYnC16tskqoebnY5So_8-5" target="FYnC16tskqoebnY5So_8-5" edge="1">
          <mxGeometry relative="1" as="geometry" />
        </mxCell>
        <mxCell id="FYnC16tskqoebnY5So_8-10" value="Kantinedame" style="rounded=0;whiteSpace=wrap;html=1;" parent="1" vertex="1">
          <mxGeometry x="270" y="40" width="120" height="20" as="geometry" />
        </mxCell>
        <mxCell id="FYnC16tskqoebnY5So_8-11" value="" style="endArrow=classic;html=1;rounded=0;" parent="1" edge="1">
          <mxGeometry width="50" height="50" relative="1" as="geometry">
            <mxPoint x="460" y="110" as="sourcePoint" />
            <mxPoint x="500" y="110" as="targetPoint" />
          </mxGeometry>
        </mxCell>
        <mxCell id="FYnC16tskqoebnY5So_8-12" value="Spiller" style="rounded=0;whiteSpace=wrap;html=1;" parent="1" vertex="1">
          <mxGeometry x="40" y="60" width="120" height="20" as="geometry" />
        </mxCell>
        <mxCell id="1TwS_bmIdJYbr3fNDJlL-9" value="" style="rounded=0;whiteSpace=wrap;html=1;" vertex="1" parent="1">
          <mxGeometry x="200" y="200" width="260" height="160" as="geometry" />
        </mxCell>
        <mxCell id="FYnC16tskqoebnY5So_8-17" value="Quest: Hjelp til med suppen&lt;br&gt;&lt;br&gt;&lt;div&gt;0/1 Hent kjøtt fra lageret.&lt;/div&gt;&lt;div&gt;&lt;br&gt;&lt;/div&gt;&lt;div&gt;0/3 Hent krydder fra hagen.&lt;/div&gt;" style="rounded=1;whiteSpace=wrap;html=1;" parent="1" vertex="1">
          <mxGeometry x="500" y="20" width="130" height="140" as="geometry" />
        </mxCell>
        <mxCell id="FYnC16tskqoebnY5So_8-18" value="" style="endArrow=classic;html=1;rounded=0;" parent="1" source="FYnC16tskqoebnY5So_8-5" edge="1">
          <mxGeometry width="50" height="50" relative="1" as="geometry">
            <mxPoint x="310" y="220" as="sourcePoint" />
            <mxPoint x="330" y="200" as="targetPoint" />
          </mxGeometry>
        </mxCell>
        <mxCell id="1TwS_bmIdJYbr3fNDJlL-4" value="Selvfølgelig. (Avslutt samtale)" style="rounded=0;whiteSpace=wrap;html=1;" vertex="1" parent="1">
          <mxGeometry x="210" y="310" width="240" height="40" as="geometry" />
        </mxCell>
        <mxCell id="1TwS_bmIdJYbr3fNDJlL-5" value="Er det noe interessant på gang i dag?" style="rounded=0;whiteSpace=wrap;html=1;" vertex="1" parent="1">
          <mxGeometry x="210" y="210" width="240" height="40" as="geometry" />
        </mxCell>
        <mxCell id="1TwS_bmIdJYbr3fNDJlL-6" value="" style="endArrow=classic;html=1;rounded=0;exitX=0.999;exitY=0.221;exitDx=0;exitDy=0;entryX=-0.004;entryY=0.406;entryDx=0;entryDy=0;entryPerimeter=0;exitPerimeter=0;" edge="1" parent="1" source="1TwS_bmIdJYbr3fNDJlL-5" target="1TwS_bmIdJYbr3fNDJlL-7">
          <mxGeometry width="50" height="50" relative="1" as="geometry">
            <mxPoint x="450.75" y="220" as="sourcePoint" />
            <mxPoint x="500" y="212.61" as="targetPoint" />
          </mxGeometry>
        </mxCell>
        <mxCell id="1TwS_bmIdJYbr3fNDJlL-7" value="Patruljene har sett noen døde dyr rundt omkring, så det virker som goblinsa er på gang igjen. Sikkert ikke noe å bekymre seg om, men vaktene har stengt porten for nå." style="rounded=0;whiteSpace=wrap;html=1;" vertex="1" parent="1">
          <mxGeometry x="500" y="190" width="250" height="70" as="geometry" />
        </mxCell>
        <mxCell id="1TwS_bmIdJYbr3fNDJlL-10" value="" style="endArrow=classic;html=1;rounded=0;exitX=-0.001;exitY=0.698;exitDx=0;exitDy=0;exitPerimeter=0;entryX=1.008;entryY=0.245;entryDx=0;entryDy=0;entryPerimeter=0;" edge="1" parent="1" source="1TwS_bmIdJYbr3fNDJlL-7" target="1TwS_bmIdJYbr3fNDJlL-9">
          <mxGeometry width="50" height="50" relative="1" as="geometry">
            <mxPoint x="490" y="300" as="sourcePoint" />
            <mxPoint x="462" y="286" as="targetPoint" />
          </mxGeometry>
        </mxCell>
        <mxCell id="1TwS_bmIdJYbr3fNDJlL-11" value="Kantinedame" style="rounded=0;whiteSpace=wrap;html=1;" vertex="1" parent="1">
          <mxGeometry x="565" y="170" width="120" height="20" as="geometry" />
        </mxCell>
        <mxCell id="1TwS_bmIdJYbr3fNDJlL-12" value="Jeg er usikker på hva som hadde smakt best i suppen..." style="rounded=0;whiteSpace=wrap;html=1;" vertex="1" parent="1">
          <mxGeometry x="210" y="260" width="240" height="40" as="geometry" />
        </mxCell>
        <mxCell id="1TwS_bmIdJYbr3fNDJlL-13" value="" style="endArrow=classic;html=1;rounded=0;exitX=1;exitY=0.5;exitDx=0;exitDy=0;entryX=-0.002;entryY=0.054;entryDx=0;entryDy=0;entryPerimeter=0;" edge="1" parent="1" target="1TwS_bmIdJYbr3fNDJlL-14">
          <mxGeometry width="50" height="50" relative="1" as="geometry">
            <mxPoint x="450" y="274.84" as="sourcePoint" />
            <mxPoint x="490" y="275" as="targetPoint" />
          </mxGeometry>
        </mxCell>
        <mxCell id="1TwS_bmIdJYbr3fNDJlL-14" value="Jeg personlig er glad i oksekjøtt når det er mye tungt å bære inn på lager, men foretrekker harekjøtt når dagen er lang og jeg trenger mer energi. Forskjellige ingrendienser har forskjellige egenskaper. Du får velge det som passer best for deg i dag." style="rounded=0;whiteSpace=wrap;html=1;" vertex="1" parent="1">
          <mxGeometry x="500" y="270" width="250" height="90" as="geometry" />
        </mxCell>
        <mxCell id="1TwS_bmIdJYbr3fNDJlL-15" value="" style="endArrow=classic;html=1;rounded=0;exitX=0;exitY=0.131;exitDx=0;exitDy=0;exitPerimeter=0;" edge="1" parent="1" source="1TwS_bmIdJYbr3fNDJlL-14">
          <mxGeometry width="50" height="50" relative="1" as="geometry">
            <mxPoint x="486.9" y="300" as="sourcePoint" />
            <mxPoint x="460" y="282" as="targetPoint" />
          </mxGeometry>
        </mxCell>
      </root>
    </mxGraphModel>
  </diagram>
</mxfile>
